<svg id="svg" version="1.1" xmlns="http://www.w3.org/2000/svg" xmlns:xlink="http://www.w3.org/1999/xlink" width="400" height="400" viewBox="0, 0, 400,400"><g id="svgg"><path id="path0" d="M187.701 8.796 C 186.266 9.443,205.096 29.304,244.725 68.943 L 303.891 128.125 339.496 128.125 C 367.747 128.125,376.269 128.613,380.759 130.489 C 388.353 133.662,388.354 133.632,381.312 119.071 C 354.740 64.122,303.272 24.183,242.969 11.716 C 230.236 9.084,191.593 7.042,187.701 8.796 M108.615 32.912 C 74.869 52.632,50.224 77.631,31.308 111.328 C 28.534 116.270,26.863 120.312,27.595 120.313 C 29.513 120.313,121.111 28.403,120.151 27.443 C 119.710 27.001,114.519 29.463,108.615 32.912 M153.130 38.463 C 147.875 43.210,146.875 45.084,146.875 50.182 L 146.875 56.250 164.063 56.250 C 185.387 56.250,186.655 54.002,172.750 40.852 C 162.639 31.289,161.256 31.121,153.130 38.463 M95.672 95.732 C 75.182 116.308,75.423 117.188,101.563 117.188 L 121.875 117.188 121.875 99.219 L 121.875 81.250 115.985 81.250 C 110.634 81.250,108.774 82.576,95.672 95.732 M146.875 99.219 L 146.875 117.188 164.063 117.188 L 181.250 117.188 181.250 99.219 L 181.250 81.250 164.063 81.250 L 146.875 81.250 146.875 99.219 M206.250 99.219 L 206.250 117.188 224.219 117.188 C 247.778 117.188,247.990 115.873,227.705 95.672 C 207.489 75.540,206.250 75.745,206.250 99.219 M40.852 150.688 C 31.289 160.798,31.121 162.181,38.463 170.308 C 47.222 180.003,55.415 179.559,56.819 169.313 C 60.760 140.561,55.848 134.831,40.852 150.688 M81.250 159.375 L 81.250 176.563 101.563 176.563 L 121.875 176.563 121.875 159.375 L 121.875 142.188 101.563 142.188 L 81.250 142.188 81.250 159.375 M146.875 159.375 L 146.875 176.563 164.063 176.563 L 181.250 176.563 181.250 159.375 L 181.250 142.188 164.063 142.188 L 146.875 142.188 146.875 159.375 M206.250 159.375 L 206.250 176.563 224.219 176.563 L 242.188 176.563 242.188 159.375 L 242.188 142.188 224.219 142.188 L 206.250 142.188 206.250 159.375 M267.188 159.375 L 267.188 176.563 273.120 176.563 C 279.845 176.563,290.625 167.347,290.625 161.599 C 290.625 157.332,275.045 142.188,270.654 142.188 C 267.284 142.188,267.188 142.665,267.188 159.375 M345.735 172.939 L 361.001 188.024 365.657 183.563 C 369.499 179.882,370.313 177.849,370.313 171.930 C 370.313 159.113,368.245 157.809,347.958 157.833 L 330.469 157.853 345.735 172.939 M305.526 193.216 L 293.083 206.341 305.549 218.807 L 318.015 231.273 330.960 218.260 L 343.905 205.248 331.245 192.468 C 324.281 185.439,318.446 179.778,318.277 179.889 C 318.107 180.000,312.370 185.997,305.526 193.216 M8.465 189.801 C 6.539 197.473,9.248 231.328,13.172 248.636 C 40.962 371.203,176.979 435.685,291.406 380.540 L 302.344 375.269 240.184 375.134 C 173.465 374.990,171.381 374.764,162.760 366.722 C 155.496 359.946,153.125 352.781,153.125 337.602 L 153.125 323.518 148.047 320.969 C 145.254 319.568,112.954 288.491,76.269 251.910 C 11.930 187.754,9.530 185.555,8.465 189.801 M81.250 207.453 C 81.250 216.307,107.175 242.188,116.045 242.188 L 121.875 242.188 121.875 221.875 L 121.875 201.563 101.563 201.563 L 81.250 201.563 81.250 207.453 M146.875 221.875 L 146.875 242.188 164.063 242.188 L 181.250 242.188 181.250 221.875 L 181.250 201.563 164.063 201.563 L 146.875 201.563 146.875 221.875 M206.250 221.875 C 206.250 248.099,207.200 248.357,227.765 227.705 C 240.789 214.627,242.188 212.657,242.188 207.393 L 242.188 201.563 224.219 201.563 L 206.250 201.563 206.250 221.875 M263.257 236.038 L 250.781 248.663 263.009 260.269 C 277.768 274.278,275.022 274.291,289.076 260.143 L 300.730 248.410 288.231 235.911 L 275.733 223.413 263.257 236.038 M347.643 235.951 L 335.204 248.464 349.561 262.821 C 363.741 277.001,363.957 277.142,367.115 274.284 C 372.805 269.135,371.896 233.352,365.930 227.636 C 360.329 222.270,361.999 221.510,347.643 235.951 M219.106 280.111 L 204.680 294.597 217.186 307.030 L 229.692 319.462 243.752 305.467 C 260.557 288.739,260.255 291.643,246.676 277.348 C 233.163 263.122,236.341 262.804,219.106 280.111 M305.828 277.763 L 293.754 289.909 308.238 304.333 L 322.722 318.757 334.797 306.612 L 346.871 294.466 332.387 280.042 L 317.903 265.618 305.828 277.763 M146.875 273.256 C 146.875 279.865,156.348 290.625,162.167 290.625 C 166.186 290.625,181.250 274.860,181.250 270.654 C 181.250 267.284,180.773 267.188,164.063 267.188 L 146.875 267.188 146.875 273.256 M261.178 322.415 L 246.805 336.848 251.222 341.080 C 255.562 345.238,255.996 345.313,275.965 345.313 L 296.290 345.313 300.801 340.605 L 305.311 335.897 297.577 327.979 C 293.324 323.624,286.628 317.343,282.697 314.021 L 275.550 307.982 261.178 322.415 M185.547 313.615 C 181.096 318.559,181.627 339.618,186.285 342.880 C 192.257 347.063,203.389 346.057,208.342 340.888 L 212.580 336.464 200.431 323.521 C 188.571 310.887,188.216 310.650,185.547 313.615 M351.571 324.210 C 340.441 335.415,340.059 336.039,342.719 338.663 C 345.374 341.282,345.691 341.189,349.703 336.599 C 362.356 322.128,367.249 315.426,366.293 313.879 C 364.749 311.380,363.317 312.385,351.571 324.210 " stroke="none" fill="#000000" fill-rule="evenodd"></path></g></svg>