<?xml version="1.0" standalone="no"?>
<!DOCTYPE svg PUBLIC "-//W3C//DTD SVG 20010904//EN"
 "http://www.w3.org/TR/2001/REC-SVG-20010904/DTD/svg10.dtd">
<svg version="1.0" xmlns="http://www.w3.org/2000/svg"
 width="256.000000pt" height="256.000000pt" viewBox="0 0 256.000000 256.000000"
 preserveAspectRatio="xMidYMid meet">

<g transform="translate(0.000000,256.000000) scale(0.100000,-0.100000)"
fill="#000000" stroke="none">
<path d="M1565 2121 l380 -381 228 0 c175 0 236 -3 262 -14 l34 -15 -10 27
c-25 65 -94 184 -154 263 -182 243 -442 408 -747 475 -40 9 -140 18 -223 21
l-150 5 380 -381z"/>
<path d="M673 2326 c-188 -115 -349 -279 -457 -469 -15 -27 -26 -50 -24 -52 2
-3 132 124 288 280 157 157 280 285 275 285 -6 0 -42 -20 -82 -44z"/>
<path d="M980 2314 c-34 -31 -40 -43 -40 -75 l0 -39 110 0 c109 0 110 0 110
24 0 26 -98 126 -124 126 -9 0 -34 -16 -56 -36z"/>
<path d="M612 1947 c-61 -61 -92 -100 -92 -115 0 -22 2 -22 130 -22 l130 0 0
115 0 115 -38 0 c-34 0 -46 -8 -130 -93z"/>
<path d="M940 1925 l0 -115 110 0 110 0 0 115 0 115 -110 0 -110 0 0 -115z"/>
<path d="M1320 1925 l0 -115 115 0 c113 0 115 0 115 23 0 31 -177 207 -208
207 -21 0 -22 -3 -22 -115z"/>
<path d="M261 1596 c-28 -30 -51 -62 -51 -70 0 -9 16 -34 36 -56 30 -33 43
-40 74 -40 37 0 37 1 44 46 3 26 6 75 6 110 0 64 0 64 -29 64 -21 0 -41 -13
-80 -54z"/>
<path d="M520 1540 l0 -110 130 0 130 0 0 110 0 110 -130 0 -130 0 0 -110z"/>
<path d="M940 1540 l0 -110 110 0 110 0 0 110 0 110 -110 0 -110 0 0 -110z"/>
<path d="M1320 1540 l0 -110 115 0 115 0 0 110 0 110 -115 0 -115 0 0 -110z"/>
<path d="M1710 1540 l0 -110 38 0 c31 0 45 7 75 38 20 21 37 47 37 58 0 27
-100 124 -128 124 -21 0 -22 -3 -22 -110z"/>
<path d="M2213 1453 l97 -96 30 28 c25 24 30 37 30 75 0 25 -7 55 -16 68 -14
21 -23 22 -127 22 l-112 0 98 -97z"/>
<path d="M1955 1323 l-79 -84 80 -79 79 -80 83 83 83 83 -81 82 c-45 45 -82
81 -83 81 -1 -1 -38 -39 -82 -86z"/>
<path d="M63 1225 c5 -157 20 -246 63 -373 119 -354 410 -650 762 -776 304
-108 666 -91 949 46 l68 33 -395 5 c-427 5 -425 5 -476 62 -43 46 -54 83 -54
177 l0 90 -32 17 c-18 9 -226 208 -462 443 l-428 426 5 -150z"/>
<path d="M520 1232 c0 -34 8 -46 93 -130 83 -83 96 -92 130 -92 l37 0 0 130 0
130 -130 0 -130 0 0 -38z"/>
<path d="M940 1140 l0 -130 110 0 110 0 0 130 0 130 -110 0 -110 0 0 -130z"/>
<path d="M1320 1140 c0 -128 0 -130 23 -130 15 0 52 30 115 93 83 83 92 96 92
130 l0 37 -115 0 -115 0 0 -130z"/>
<path d="M1685 1049 l-80 -80 78 -75 c43 -41 82 -74 86 -74 3 0 40 34 81 75
l75 75 -80 80 -80 80 -80 -81z"/>
<path d="M2225 1050 l-80 -80 92 -92 c91 -91 92 -92 113 -73 18 16 20 30 20
145 0 125 0 126 -28 153 -15 15 -30 27 -33 27 -2 0 -40 -36 -84 -80z"/>
<path d="M1402 767 l-92 -92 80 -80 80 -80 90 90 c50 49 90 93 90 97 0 10
-140 158 -149 158 -4 0 -48 -42 -99 -93z"/>
<path d="M1957 782 l-77 -77 93 -93 92 -92 78 78 77 77 -93 93 -92 92 -78 -78z"/>
<path d="M940 811 c0 -32 6 -44 40 -75 22 -20 48 -36 58 -36 26 0 122 101 122
128 0 21 -3 22 -110 22 l-110 0 0 -39z"/>
<path d="M1672 497 l-92 -93 28 -27 c28 -27 30 -27 158 -27 l130 0 29 30 29
30 -50 51 c-27 28 -70 68 -95 89 l-45 39 -92 -92z"/>
<path d="M1188 553 c-14 -15 -18 -37 -18 -96 0 -67 3 -78 22 -91 13 -9 43 -16
68 -16 38 0 51 5 73 28 l28 29 -78 82 c-76 81 -78 83 -95 64z"/>
<path d="M2251 486 c-64 -64 -73 -77 -62 -90 7 -9 18 -13 23 -10 15 10 128
154 128 165 0 20 -18 6 -89 -65z"/>
</g>
</svg>
